<svg width="270" height="50" viewBox="0 0 270 50" fill="none" xmlns="http://www.w3.org/2000/svg">
<g clip-path="url(#clip0_404_252)">
<path d="M25 50C38.8071 50 50 38.8071 50 25C50 11.1929 38.8071 0 25 0C11.1929 0 0 11.1929 0 25C0 38.8071 11.1929 50 25 50Z" fill="#6DA544"/>
<path d="M25 9.78259L45.6521 25L25 40.2174L4.34784 25L25 9.78259Z" fill="#FFDA44"/>
<path d="M25 33.6956C29.8024 33.6956 33.6956 29.8024 33.6956 25C33.6956 20.1975 29.8024 16.3044 25 16.3044C20.1975 16.3044 16.3044 20.1975 16.3044 25C16.3044 29.8024 20.1975 33.6956 25 33.6956Z" fill="#F0F0F0"/>
<path d="M20.6521 24.4565C19.14 24.4565 17.6808 24.6865 16.3071 25.1133C16.368 29.8633 20.2355 33.6957 25 33.6957C27.9461 33.6957 30.548 32.2292 32.121 29.9879C29.4299 26.619 25.2892 24.4565 20.6521 24.4565Z" fill="#0052B4"/>
<path d="M33.5345 26.666C33.6392 26.1266 33.6957 25.57 33.6957 25C33.6957 20.1974 29.8025 16.3044 25.0001 16.3044C21.4167 16.3044 18.3405 18.4724 17.0093 21.568C18.186 21.3241 19.4044 21.1957 20.6523 21.1957C25.7028 21.1956 30.2718 23.295 33.5345 26.666Z" fill="#0052B4"/>
</g>
<path d="M107.174 22.3652V27.041C107.174 28.8809 106.957 30.4805 106.523 31.8398C106.102 33.1992 105.492 34.3242 104.695 35.2148C103.91 36.1055 102.973 36.7676 101.883 37.2012C100.793 37.6348 99.5918 37.8516 98.2793 37.8516C97.2246 37.8516 96.2402 37.7168 95.3262 37.4473C94.4121 37.166 93.5859 36.7441 92.8477 36.1816C92.1211 35.6074 91.4941 34.8926 90.9668 34.0371C90.4395 33.1816 90.0352 32.1738 89.7539 31.0137C89.4727 29.8418 89.332 28.5176 89.332 27.041V22.3652C89.332 20.5137 89.543 18.9141 89.9648 17.5664C90.3984 16.207 91.0137 15.082 91.8105 14.1914C92.6074 13.3008 93.5508 12.6387 94.6406 12.2051C95.7305 11.7715 96.9316 11.5547 98.2441 11.5547C99.2988 11.5547 100.277 11.6953 101.18 11.9766C102.094 12.2461 102.92 12.668 103.658 13.2422C104.396 13.8047 105.023 14.5137 105.539 15.3691C106.066 16.2246 106.471 17.2383 106.752 18.4102C107.033 19.5703 107.174 20.8887 107.174 22.3652ZM101.25 27.7617V21.6094C101.25 20.7891 101.203 20.0742 101.109 19.4648C101.027 18.8555 100.898 18.3398 100.723 17.918C100.559 17.4961 100.354 17.1562 100.107 16.8984C99.8613 16.6289 99.5801 16.4355 99.2637 16.3184C98.959 16.1895 98.6191 16.125 98.2441 16.125C97.7754 16.125 97.3535 16.2246 96.9785 16.4238C96.6152 16.6113 96.3047 16.916 96.0469 17.3379C95.7891 17.7598 95.5898 18.3223 95.4492 19.0254C95.3203 19.7285 95.2559 20.5898 95.2559 21.6094V27.7617C95.2559 28.5938 95.2969 29.3203 95.3789 29.9414C95.4727 30.5508 95.6016 31.0723 95.7656 31.5059C95.9414 31.9277 96.1523 32.2734 96.3984 32.543C96.6445 32.8008 96.9258 32.9883 97.2422 33.1055C97.5586 33.2227 97.9043 33.2812 98.2793 33.2812C98.7363 33.2812 99.1465 33.1875 99.5098 33C99.873 32.8125 100.184 32.5078 100.441 32.0859C100.711 31.6523 100.91 31.084 101.039 30.3809C101.18 29.666 101.25 28.793 101.25 27.7617ZM128.057 30.4512C128.057 32.0801 127.67 33.4453 126.896 34.5469C126.135 35.6484 125.08 36.4746 123.732 37.0254C122.396 37.5762 120.873 37.8516 119.162 37.8516C117.463 37.8516 115.934 37.5762 114.574 37.0254C113.227 36.4746 112.16 35.6484 111.375 34.5469C110.59 33.4453 110.197 32.0801 110.197 30.4512C110.197 29.3379 110.42 28.3418 110.865 27.4629C111.322 26.5723 111.955 25.8164 112.764 25.1953C113.572 24.5742 114.516 24.0996 115.594 23.7715C116.684 23.4434 117.861 23.2793 119.127 23.2793C120.838 23.2793 122.367 23.5723 123.715 24.1582C125.062 24.7324 126.123 25.5527 126.896 26.6191C127.67 27.6855 128.057 28.9629 128.057 30.4512ZM122.098 29.9766C122.098 29.2734 121.975 28.6816 121.729 28.2012C121.482 27.709 121.137 27.334 120.691 27.0762C120.246 26.8184 119.725 26.6895 119.127 26.6895C118.541 26.6895 118.02 26.8184 117.562 27.0762C117.117 27.334 116.766 27.709 116.508 28.2012C116.262 28.6816 116.139 29.2734 116.139 29.9766C116.139 30.6562 116.268 31.248 116.525 31.752C116.783 32.2441 117.135 32.625 117.58 32.8945C118.037 33.1523 118.564 33.2812 119.162 33.2812C119.76 33.2812 120.275 33.1523 120.709 32.8945C121.154 32.625 121.494 32.2441 121.729 31.752C121.975 31.248 122.098 30.6562 122.098 29.9766ZM127.529 18.7441C127.529 20.0801 127.172 21.252 126.457 22.2598C125.754 23.2559 124.77 24.0352 123.504 24.5977C122.25 25.1484 120.803 25.4238 119.162 25.4238C117.533 25.4238 116.08 25.1484 114.803 24.5977C113.537 24.0352 112.541 23.2559 111.814 22.2598C111.1 21.252 110.742 20.0801 110.742 18.7441C110.742 17.1738 111.1 15.8555 111.814 14.7891C112.541 13.7227 113.537 12.9141 114.803 12.3633C116.068 11.8125 117.51 11.5371 119.127 11.5371C120.768 11.5371 122.221 11.8125 123.486 12.3633C124.752 12.9141 125.742 13.7227 126.457 14.7891C127.172 15.8555 127.529 17.1738 127.529 18.7441ZM121.605 19.0605C121.605 18.4512 121.512 17.9297 121.324 17.4961C121.137 17.0508 120.861 16.7109 120.498 16.4766C120.135 16.2305 119.678 16.1074 119.127 16.1074C118.6 16.1074 118.154 16.2246 117.791 16.459C117.428 16.6934 117.152 17.0332 116.965 17.4785C116.777 17.9121 116.684 18.4395 116.684 19.0605C116.684 19.6699 116.777 20.2031 116.965 20.6602C117.152 21.1172 117.428 21.4746 117.791 21.7324C118.166 21.9902 118.623 22.1191 119.162 22.1191C119.713 22.1191 120.164 21.9902 120.516 21.7324C120.879 21.4746 121.148 21.1172 121.324 20.6602C121.512 20.2031 121.605 19.6699 121.605 19.0605ZM131.66 34.7227C131.66 33.8789 131.965 33.1758 132.574 32.6133C133.184 32.0391 133.969 31.752 134.93 31.752C135.902 31.752 136.688 32.0391 137.285 32.6133C137.895 33.1758 138.199 33.8789 138.199 34.7227C138.199 35.5664 137.895 36.2754 137.285 36.8496C136.688 37.4121 135.902 37.6934 134.93 37.6934C133.969 37.6934 133.184 37.4121 132.574 36.8496C131.965 36.2754 131.66 35.5664 131.66 34.7227ZM131.66 20.6953C131.66 19.8516 131.965 19.1484 132.574 18.5859C133.184 18.0117 133.969 17.7246 134.93 17.7246C135.902 17.7246 136.688 18.0117 137.285 18.5859C137.895 19.1484 138.199 19.8516 138.199 20.6953C138.199 21.5391 137.895 22.248 137.285 22.8223C136.688 23.3848 135.902 23.666 134.93 23.666C133.969 23.666 133.184 23.3848 132.574 22.8223C131.965 22.248 131.66 21.5391 131.66 20.6953ZM159.768 22.3652V27.041C159.768 28.8809 159.551 30.4805 159.117 31.8398C158.695 33.1992 158.086 34.3242 157.289 35.2148C156.504 36.1055 155.566 36.7676 154.477 37.2012C153.387 37.6348 152.186 37.8516 150.873 37.8516C149.818 37.8516 148.834 37.7168 147.92 37.4473C147.006 37.166 146.18 36.7441 145.441 36.1816C144.715 35.6074 144.088 34.8926 143.561 34.0371C143.033 33.1816 142.629 32.1738 142.348 31.0137C142.066 29.8418 141.926 28.5176 141.926 27.041V22.3652C141.926 20.5137 142.137 18.9141 142.559 17.5664C142.992 16.207 143.607 15.082 144.404 14.1914C145.201 13.3008 146.145 12.6387 147.234 12.2051C148.324 11.7715 149.525 11.5547 150.838 11.5547C151.893 11.5547 152.871 11.6953 153.773 11.9766C154.688 12.2461 155.514 12.668 156.252 13.2422C156.99 13.8047 157.617 14.5137 158.133 15.3691C158.66 16.2246 159.064 17.2383 159.346 18.4102C159.627 19.5703 159.768 20.8887 159.768 22.3652ZM153.844 27.7617V21.6094C153.844 20.7891 153.797 20.0742 153.703 19.4648C153.621 18.8555 153.492 18.3398 153.316 17.918C153.152 17.4961 152.947 17.1562 152.701 16.8984C152.455 16.6289 152.174 16.4355 151.857 16.3184C151.553 16.1895 151.213 16.125 150.838 16.125C150.369 16.125 149.947 16.2246 149.572 16.4238C149.209 16.6113 148.898 16.916 148.641 17.3379C148.383 17.7598 148.184 18.3223 148.043 19.0254C147.914 19.7285 147.85 20.5898 147.85 21.6094V27.7617C147.85 28.5938 147.891 29.3203 147.973 29.9414C148.066 30.5508 148.195 31.0723 148.359 31.5059C148.535 31.9277 148.746 32.2734 148.992 32.543C149.238 32.8008 149.52 32.9883 149.836 33.1055C150.152 33.2227 150.498 33.2812 150.873 33.2812C151.33 33.2812 151.74 33.1875 152.104 33C152.467 32.8125 152.777 32.5078 153.035 32.0859C153.305 31.6523 153.504 31.084 153.633 30.3809C153.773 29.666 153.844 28.793 153.844 27.7617ZM180.65 22.3652V27.041C180.65 28.8809 180.434 30.4805 180 31.8398C179.578 33.1992 178.969 34.3242 178.172 35.2148C177.387 36.1055 176.449 36.7676 175.359 37.2012C174.27 37.6348 173.068 37.8516 171.756 37.8516C170.701 37.8516 169.717 37.7168 168.803 37.4473C167.889 37.166 167.062 36.7441 166.324 36.1816C165.598 35.6074 164.971 34.8926 164.443 34.0371C163.916 33.1816 163.512 32.1738 163.23 31.0137C162.949 29.8418 162.809 28.5176 162.809 27.041V22.3652C162.809 20.5137 163.02 18.9141 163.441 17.5664C163.875 16.207 164.49 15.082 165.287 14.1914C166.084 13.3008 167.027 12.6387 168.117 12.2051C169.207 11.7715 170.408 11.5547 171.721 11.5547C172.775 11.5547 173.754 11.6953 174.656 11.9766C175.57 12.2461 176.396 12.668 177.135 13.2422C177.873 13.8047 178.5 14.5137 179.016 15.3691C179.543 16.2246 179.947 17.2383 180.229 18.4102C180.51 19.5703 180.65 20.8887 180.65 22.3652ZM174.727 27.7617V21.6094C174.727 20.7891 174.68 20.0742 174.586 19.4648C174.504 18.8555 174.375 18.3398 174.199 17.918C174.035 17.4961 173.83 17.1562 173.584 16.8984C173.338 16.6289 173.057 16.4355 172.74 16.3184C172.436 16.1895 172.096 16.125 171.721 16.125C171.252 16.125 170.83 16.2246 170.455 16.4238C170.092 16.6113 169.781 16.916 169.523 17.3379C169.266 17.7598 169.066 18.3223 168.926 19.0254C168.797 19.7285 168.732 20.5898 168.732 21.6094V27.7617C168.732 28.5938 168.773 29.3203 168.855 29.9414C168.949 30.5508 169.078 31.0723 169.242 31.5059C169.418 31.9277 169.629 32.2734 169.875 32.543C170.121 32.8008 170.402 32.9883 170.719 33.1055C171.035 33.2227 171.381 33.2812 171.756 33.2812C172.213 33.2812 172.623 33.1875 172.986 33C173.35 32.8125 173.66 32.5078 173.918 32.0859C174.188 31.6523 174.387 31.084 174.516 30.3809C174.656 29.666 174.727 28.793 174.727 27.7617Z" fill="#E1E1E6"/>
<g clip-path="url(#clip1_404_252)">
<path d="M255.87 2.48066C252.583 0.891406 248.896 0 245 0C241.104 0 237.417 0.891406 234.13 2.48066L231.957 25L234.13 47.5193C237.417 49.1086 241.104 50 245 50C248.896 50 252.583 49.1086 255.87 47.5193L258.043 25L255.87 2.48066Z" fill="#D80027"/>
<path d="M245 16.3044L247.158 22.9469H254.143L248.492 27.0527L250.651 33.6956L245 29.59L239.349 33.6956L241.508 27.0527L235.857 22.9469H242.841L245 16.3044Z" fill="#FFDA44"/>
<path d="M234.13 2.48157C225.768 6.52512 220 15.0885 220 25C220 34.9115 225.768 43.4749 234.13 47.5185V2.48157Z" fill="#496E2D"/>
<path d="M255.87 2.48157V47.5185C264.232 43.4749 270 34.9114 270 25C270 15.0886 264.232 6.52512 255.87 2.48157Z" fill="#FFDA44"/>
</g>
<defs>
<clipPath id="clip0_404_252">
<rect width="50" height="50" fill="white"/>
</clipPath>
<clipPath id="clip1_404_252">
<rect width="50" height="50" fill="white" transform="translate(220)"/>
</clipPath>
</defs>
</svg>
